<svg width="119" height="119" viewBox="0 0 119 119" fill="none" xmlns="http://www.w3.org/2000/svg">
<path d="M59.5 0.0327148C26.6286 0.0327148 0.5 26.1613 0.5 59.0327C0.5 91.9041 26.6286 118.033 59.5 118.033C92.3714 118.033 118.5 91.9041 118.5 59.0327C118.5 26.1613 92.3714 0.0327148 59.5 0.0327148ZM82.2571 88.5327L59.5 65.7756L36.7429 88.5327L30 81.7899L52.7571 59.0327L30 36.2756L36.7429 29.5327L59.5 52.2899L82.2571 29.5327L89 36.2756L66.2429 59.0327L89 81.7899L82.2571 88.5327Z" fill="black"/>
<path d="M82.2571 88.5327L59.5 65.7756L36.7429 88.5327L30 81.7899L52.7571 59.0327L30 36.2756L36.7429 29.5327L59.5 52.2899L82.2571 29.5327L89 36.2756L66.2429 59.0327L89 81.7899L82.2571 88.5327Z" fill="white"/>
</svg>
