<svg width="25" height="24" viewBox="0 0 25 24" fill="none" xmlns="http://www.w3.org/2000/svg">
<path d="M20.5002 10.999H22.5002C22.5002 5.869 18.6272 2 13.4902 2V4C17.5522 4 20.5002 6.943 20.5002 10.999Z" fill="white"/>
<path d="M13.4998 8.00024C15.6028 8.00024 16.4998 8.89724 16.4998 11.0002H18.4998C18.4998 7.77524 16.7248 6.00024 13.4998 6.00024V8.00024ZM16.9218 13.4432C16.7296 13.2686 16.4771 13.1754 16.2176 13.1835C15.9581 13.1915 15.7118 13.3001 15.5308 13.4862L13.1378 15.9472C12.5618 15.8372 11.4038 15.4762 10.2118 14.2872C9.01979 13.0942 8.65879 11.9332 8.55179 11.3612L11.0108 8.96724C11.1972 8.78637 11.3059 8.54006 11.314 8.28045C11.322 8.02083 11.2287 7.76828 11.0538 7.57624L7.35879 3.51324C7.18384 3.3206 6.94067 3.20374 6.68095 3.1875C6.42122 3.17125 6.16539 3.2569 5.96779 3.42624L3.79779 5.28724C3.6249 5.46075 3.52171 5.69169 3.50779 5.93624C3.49279 6.18624 3.20679 12.1082 7.79879 16.7022C11.8048 20.7072 16.8228 21.0002 18.2048 21.0002C18.4068 21.0002 18.5308 20.9942 18.5638 20.9922C18.8083 20.9786 19.0391 20.8749 19.2118 20.7012L21.0718 18.5302C21.2413 18.3328 21.3271 18.077 21.311 17.8173C21.295 17.5576 21.1783 17.3143 20.9858 17.1392L16.9218 13.4432Z" fill="white"/>
</svg>
