<svg width="25" height="25" viewBox="0 0 25 25" fill="none" xmlns="http://www.w3.org/2000/svg">
<path d="M17.767 0.928223C19.4834 0.928223 21.1295 1.61006 22.3431 2.82374C23.5568 4.03742 24.2387 5.68352 24.2387 7.39992V17.7546C24.2387 19.471 23.5568 21.1171 22.3431 22.3308C21.1295 23.5445 19.4834 24.2263 17.767 24.2263H7.41225C5.69585 24.2263 4.04975 23.5445 2.83607 22.3308C1.62239 21.1171 0.940552 19.471 0.940552 17.7546V7.39992C0.940552 5.68352 1.62239 4.03742 2.83607 2.82374C4.04975 1.61006 5.69585 0.928223 7.41225 0.928223H17.767ZM12.5896 7.39992C11.2165 7.39992 9.89961 7.94539 8.92866 8.91633C7.95772 9.88728 7.41225 11.2042 7.41225 12.5773C7.41225 13.9504 7.95772 15.2673 8.92866 16.2382C9.89961 17.2092 11.2165 17.7546 12.5896 17.7546C13.9627 17.7546 15.2796 17.2092 16.2506 16.2382C17.2215 15.2673 17.767 13.9504 17.767 12.5773C17.767 11.2042 17.2215 9.88728 16.2506 8.91633C15.2796 7.94539 13.9627 7.39992 12.5896 7.39992ZM12.5896 9.9886C13.2762 9.9886 13.9346 10.2613 14.4201 10.7468C14.9056 11.2323 15.1783 11.8907 15.1783 12.5773C15.1783 13.2638 14.9056 13.9223 14.4201 14.4078C13.9346 14.8932 13.2762 15.166 12.5896 15.166C11.903 15.166 11.2446 14.8932 10.7591 14.4078C10.2737 13.9223 10.0009 13.2638 10.0009 12.5773C10.0009 11.8907 10.2737 11.2323 10.7591 10.7468C11.2446 10.2613 11.903 9.9886 12.5896 9.9886ZM18.4141 5.45841C18.0709 5.45841 17.7416 5.59478 17.4989 5.83751C17.2562 6.08025 17.1198 6.40947 17.1198 6.75275C17.1198 7.09603 17.2562 7.42525 17.4989 7.66799C17.7416 7.91072 18.0709 8.04709 18.4141 8.04709C18.7574 8.04709 19.0866 7.91072 19.3294 7.66799C19.5721 7.42525 19.7085 7.09603 19.7085 6.75275C19.7085 6.40947 19.5721 6.08025 19.3294 5.83751C19.0866 5.59478 18.7574 5.45841 18.4141 5.45841Z" fill="black"/>
</svg>
