<svg width="22" height="25" viewBox="0 0 22 25" fill="none" xmlns="http://www.w3.org/2000/svg">
<path d="M16.9516 4.57826C16.067 3.56806 15.5795 2.27097 15.5796 0.928223H11.5801V16.978C11.5499 17.8468 11.1834 18.6698 10.558 19.2735C9.93251 19.8773 9.09702 20.2144 8.22774 20.2139C6.38978 20.2139 4.86246 18.7125 4.86246 16.8486C4.86246 14.6223 7.01106 12.9526 9.22438 13.6386V9.54852C4.75891 8.95313 0.850006 12.422 0.850006 16.8486C0.850006 21.1588 4.42238 24.2263 8.2148 24.2263C12.279 24.2263 15.5796 20.9258 15.5796 16.8486V8.7072C17.2014 9.87192 19.1486 10.4968 21.1453 10.4934V6.49388C21.1453 6.49388 18.7119 6.61037 16.9516 4.57826Z" fill="black"/>
</svg>
